<?xml version="1.0" standalone="no"?>
<!DOCTYPE svg PUBLIC "-//W3C//DTD SVG 20010904//EN"
 "http://www.w3.org/TR/2001/REC-SVG-20010904/DTD/svg10.dtd">
<svg version="1.0" xmlns="http://www.w3.org/2000/svg"
 width="512.000000pt" height="512.000000pt" viewBox="0 0 512.000000 512.000000"
 preserveAspectRatio="xMidYMid meet">

<g transform="translate(0.000000,512.000000) scale(0.100000,-0.100000)"
fill="#000000" stroke="none">
<path d="M2315 5109 c-800 -83 -1501 -518 -1927 -1196 -487 -774 -516 -1777
-75 -2578 200 -364 487 -676 841 -913 238 -159 600 -311 876 -366 214 -43 295
-51 530 -51 236 0 333 10 532 51 879 183 1616 843 1897 1699 93 282 126 493
126 805 0 301 -32 513 -116 775 -124 390 -330 728 -622 1024 -399 404 -893
653 -1462 737 -123 18 -478 26 -600 13z m807 -1006 c17 -15 18 -66 18 -1214
l0 -1198 -22 -15 c-20 -14 -121 -16 -886 -16 -868 0 -892 1 -914 34 -4 6 -8
545 -8 1199 0 1174 0 1187 20 1207 20 20 33 20 897 20 801 0 878 -1 895 -17z
m346 -325 c17 -17 17 -2419 0 -2436 -17 -17 -1799 -17 -1816 0 -8 8 -12 48
-12 115 l0 103 753 2 752 3 34 24 c18 13 42 42 52 65 18 39 19 89 19 1089 l0
1047 103 0 c67 0 107 -4 115 -12z m330 -330 c17 -17 17 -2419 0 -2436 -9 -9
-225 -12 -910 -12 -1040 0 -921 -17 -916 133 l3 92 760 5 c846 6 794 1 829 73
15 32 16 131 16 1096 l0 1061 103 0 c67 0 107 -4 115 -12z"/>
<path d="M1474 3726 c-17 -13 -19 -30 -22 -177 -4 -196 0 -222 34 -237 15 -8
85 -12 184 -12 99 0 169 4 184 12 34 15 38 41 34 237 -3 147 -5 164 -22 177
-15 11 -60 14 -196 14 -136 0 -181 -3 -196 -14z m306 -206 l0 -110 -110 0
-110 0 0 110 0 110 110 0 110 0 0 -110z"/>
<path d="M2027 3642 c-22 -24 -21 -45 1 -65 16 -15 55 -17 335 -17 302 0 317
1 327 19 14 27 13 47 -6 65 -13 14 -57 16 -328 16 -290 0 -314 -1 -329 -18z"/>
<path d="M2026 3464 c-20 -19 -20 -34 0 -62 l15 -22 464 0 c502 0 495 -1 495
54 0 46 3 46 -491 46 -412 0 -469 -2 -483 -16z"/>
<path d="M1474 3096 c-17 -13 -19 -30 -22 -191 -3 -148 -1 -180 13 -201 l15
-24 190 0 c184 0 189 1 204 22 13 18 16 55 16 195 0 229 16 213 -218 213 -138
0 -183 -3 -198 -14z m306 -206 l0 -110 -110 0 -110 0 0 110 0 110 110 0 110 0
0 -110z"/>
<path d="M2027 3012 c-22 -24 -21 -45 1 -65 16 -15 54 -17 330 -17 269 0 313
2 326 16 19 18 20 38 6 65 -10 18 -25 19 -329 19 -295 0 -319 -1 -334 -18z"/>
<path d="M2018 2825 c-9 -19 -8 -29 6 -50 l16 -25 465 0 c502 0 495 -1 495 54
0 46 3 46 -497 46 l-473 0 -12 -25z"/>
<path d="M1470 2460 c-18 -18 -20 -33 -20 -193 0 -140 3 -177 16 -195 15 -21
20 -22 204 -22 184 0 189 1 204 22 13 18 16 55 16 195 0 229 17 213 -220 213
-167 0 -181 -1 -200 -20z m310 -200 l0 -110 -110 0 -110 0 0 110 0 110 110 0
110 0 0 -110z"/>
<path d="M2026 2384 c-21 -21 -20 -47 2 -67 16 -15 54 -17 330 -17 336 0 342
1 342 54 0 45 -6 46 -341 46 -275 0 -320 -2 -333 -16z"/>
<path d="M2050 2223 c-19 -7 -40 -33 -40 -50 0 -7 9 -22 20 -33 19 -19 33 -20
478 -20 432 0 460 1 475 18 23 26 21 58 -5 76 -20 14 -80 16 -468 15 -245 0
-452 -3 -460 -6z"/>
</g>
</svg>
